<svg xmlns="http://www.w3.org/2000/svg" width="128" height="24" viewBox="0 0 128 24">
  <g transform="translate(0,0)">
  <g>
    <path d="M12 13 Q13.24 6.86 19.07 4.57" stroke="#922b21" stroke-width="2.4" fill="none" stroke-linecap="round"/>
    <ellipse cx="16" cy="14" rx="9" ry="6" fill="#e74c3c" stroke="#922b21" stroke-width="1.5"/>
    <ellipse cx="14" cy="11.6" rx="2.6" ry="1.8" fill="#ff9d8a" opacity="0.6"/>
    <circle cx="24" cy="10" r="3" fill="#e74c3c" stroke="#922b21" stroke-width="1.2"/>
    <circle cx="25" cy="9" r="0.9" fill="#000000"/>
    <polygon points="27,10 32,11 27,12" fill="#f39c12"/>
  </g>
  </g>
  <g transform="translate(32,0)">
  <g>
    <path d="M12 13 Q16.9 9.09 22.83 11.09" stroke="#922b21" stroke-width="2.4" fill="none" stroke-linecap="round"/>
    <ellipse cx="16" cy="14" rx="9" ry="6" fill="#e74c3c" stroke="#922b21" stroke-width="1.5"/>
    <ellipse cx="14" cy="11.6" rx="2.6" ry="1.8" fill="#ff9d8a" opacity="0.6"/>
    <circle cx="24" cy="10" r="3" fill="#e74c3c" stroke="#922b21" stroke-width="1.2"/>
    <circle cx="25" cy="9" r="0.9" fill="#000000"/>
    <polygon points="27,10 32,11 27,12" fill="#f39c12"/>
  </g>
  </g>
  <g transform="translate(64,0)">
  <g>
    <path d="M12 13 Q18.14 14.24 20.43 20.07" stroke="#922b21" stroke-width="2.4" fill="none" stroke-linecap="round"/>
    <ellipse cx="16" cy="14" rx="9" ry="6" fill="#e74c3c" stroke="#922b21" stroke-width="1.5"/>
    <ellipse cx="14" cy="11.6" rx="2.6" ry="1.8" fill="#ff9d8a" opacity="0.6"/>
    <circle cx="24" cy="10" r="3" fill="#e74c3c" stroke="#922b21" stroke-width="1.2"/>
    <circle cx="25" cy="9" r="0.9" fill="#000000"/>
    <polygon points="27,10 32,11 27,12" fill="#f39c12"/>
  </g>
  </g>
  <g transform="translate(96,0)">
  <g>
    <path d="M12 13 Q16.9 9.09 22.83 11.09" stroke="#922b21" stroke-width="2.4" fill="none" stroke-linecap="round"/>
    <ellipse cx="16" cy="14" rx="9" ry="6" fill="#e74c3c" stroke="#922b21" stroke-width="1.5"/>
    <ellipse cx="14" cy="11.6" rx="2.6" ry="1.8" fill="#ff9d8a" opacity="0.6"/>
    <circle cx="24" cy="10" r="3" fill="#e74c3c" stroke="#922b21" stroke-width="1.2"/>
    <circle cx="25" cy="9" r="0.9" fill="#000000"/>
    <polygon points="27,10 32,11 27,12" fill="#f39c12"/>
  </g>
  </g>
</svg>
