<svg xmlns="http://www.w3.org/2000/svg" width="96" height="28" viewBox="0 0 96 28">
  <g transform="translate(0,0)">
  <g>
    <path d="M7 23.05 Q5 21.85 3 20.25" stroke="#145a32" stroke-width="2" fill="none" stroke-linecap="round"/>
    <path d="M25 23.05 Q27 21.85 29 20.25" stroke="#145a32" stroke-width="2" fill="none" stroke-linecap="round"/>
    <ellipse cx="16" cy="18.5" rx="13" ry="6.5" fill="#27ae60" stroke="#145a32" stroke-width="1.5"/>
    <ellipse cx="12.1" cy="15.9" rx="3.64" ry="1.82" fill="#8fe3a8" opacity="0.55"/>
    <circle cx="8.85" cy="12.98" r="3" fill="#27ae60" stroke="#145a32" stroke-width="1.2"/>
    <circle cx="23.15" cy="12.98" r="3" fill="#27ae60" stroke="#145a32" stroke-width="1.2"/>
    <circle cx="8.85" cy="12.98" r="1.2" fill="#000000"/>
    <circle cx="23.15" cy="12.98" r="1.2" fill="#000000"/>
  </g>
  </g>
  <g transform="translate(32,0)">
  <g>
    <path d="M10 18.7 Q5.5 16 1 12.4" stroke="#145a32" stroke-width="2" fill="none" stroke-linecap="round"/>
    <path d="M22 18.7 Q26.5 16 31 12.4" stroke="#145a32" stroke-width="2" fill="none" stroke-linecap="round"/>
    <ellipse cx="16" cy="11" rx="9" ry="11" fill="#27ae60" stroke="#145a32" stroke-width="1.5"/>
    <ellipse cx="13.3" cy="6.6" rx="2.52" ry="3.08" fill="#8fe3a8" opacity="0.55"/>
    <circle cx="11.05" cy="1.65" r="3" fill="#27ae60" stroke="#145a32" stroke-width="1.2"/>
    <circle cx="20.95" cy="1.65" r="3" fill="#27ae60" stroke="#145a32" stroke-width="1.2"/>
    <circle cx="11.05" cy="1.65" r="1.2" fill="#000000"/>
    <circle cx="20.95" cy="1.65" r="1.2" fill="#000000"/>
  </g>
  </g>
  <g transform="translate(64,0)">
  <g>
    <path d="M8 19.6 Q5.5 18.1 3 16.1" stroke="#145a32" stroke-width="2" fill="none" stroke-linecap="round"/>
    <path d="M24 19.6 Q26.5 18.1 29 16.1" stroke="#145a32" stroke-width="2" fill="none" stroke-linecap="round"/>
    <ellipse cx="16" cy="14" rx="11" ry="8" fill="#27ae60" stroke="#145a32" stroke-width="1.5"/>
    <ellipse cx="12.7" cy="10.8" rx="3.08" ry="2.24" fill="#8fe3a8" opacity="0.55"/>
    <circle cx="9.95" cy="7.2" r="3" fill="#27ae60" stroke="#145a32" stroke-width="1.2"/>
    <circle cx="22.05" cy="7.2" r="3" fill="#27ae60" stroke="#145a32" stroke-width="1.2"/>
    <circle cx="9.95" cy="7.2" r="1.2" fill="#000000"/>
    <circle cx="22.05" cy="7.2" r="1.2" fill="#000000"/>
  </g>
  </g>
</svg>
