<svg xmlns="http://www.w3.org/2000/svg" width="48" height="24" viewBox="0 0 48 24">
  <g transform="translate(0,0)">
    <path d="M12 21 C4 15 1 10.5 1 7 C1 3.5 3.7 1.5 6.7 1.5 C9 1.5 10.8 2.8 12 4.6 C13.2 2.8 15 1.5 17.3 1.5 C20.3 1.5 23 3.5 23 7 C23 10.5 20 15 12 21 Z" fill="#e74c3c" stroke="#8e2418" stroke-width="1.4" stroke-linejoin="round"/>
    <path d="M6.5 5.5 C5 6.6 4.3 8 4.6 9.6" fill="none" stroke="#ff8f80" stroke-width="1.6" stroke-linecap="round" opacity="0.8"/>
  </g>
  <g transform="translate(24,0)">
    <path d="M36 21 C28 15 25 10.5 25 7 C25 3.5 27.7 1.5 30.7 1.5 C33 1.5 34.8 2.8 36 4.6 C37.2 2.8 39 1.5 41.3 1.5 C44.3 1.5 47 3.5 47 7 C47 10.5 44 15 36 21 Z" fill="none" stroke="#4a4a4a" stroke-width="1.4" stroke-linejoin="round"/>
  </g>
</svg>
