<svg xmlns="http://www.w3.org/2000/svg" width="64" height="48" viewBox="0 0 64 48">
  <g transform="translate(0,0)">
  <g>
    <ellipse cx="16" cy="24" rx="7" ry="9.2" fill="#2c3e50" stroke="#16202a" stroke-width="1.2"/>
    <ellipse cx="13.3" cy="21.24" rx="2.6" ry="4.14" fill="#3d5a75" opacity="0.55"/>
    <line x1="16" y1="18" x2="27.59" y2="14.89" stroke="#34495e" stroke-width="2.6" stroke-linecap="round"/>
    <line x1="16" y1="18" x2="4.41" y2="14.89" stroke="#34495e" stroke-width="2.6" stroke-linecap="round"/>
    <line x1="16" y1="31" x2="21.5" y2="40.53" stroke="#1b2733" stroke-width="3.6" stroke-linecap="round"/>
    <line x1="16" y1="31" x2="10.5" y2="40.53" stroke="#1b2733" stroke-width="3.6" stroke-linecap="round"/>
    <circle cx="16" cy="9" r="6" fill="#f1c27d" stroke="#333333" stroke-width="1.5"/>
    
  </g>
  </g>
  <g transform="translate(32,0)">
  <g>
    <ellipse cx="16" cy="24" rx="7" ry="8.6" fill="#2c3e50" stroke="#16202a" stroke-width="1.2"/>
    <ellipse cx="13.3" cy="21.42" rx="2.6" ry="3.87" fill="#3d5a75" opacity="0.55"/>
    <line x1="16" y1="18" x2="20.1" y2="29.28" stroke="#34495e" stroke-width="2.6" stroke-linecap="round"/>
    <line x1="16" y1="18" x2="11.9" y2="29.28" stroke="#34495e" stroke-width="2.6" stroke-linecap="round"/>
    <line x1="16" y1="31" x2="19.12" y2="45.67" stroke="#1b2733" stroke-width="3.6" stroke-linecap="round"/>
    <line x1="16" y1="31" x2="12.88" y2="45.67" stroke="#1b2733" stroke-width="3.6" stroke-linecap="round"/>
    <circle cx="16" cy="10.5" r="6" fill="#f1c27d" stroke="#333333" stroke-width="1.5"/>
    
  </g>
  </g>
</svg>
