<svg xmlns="http://www.w3.org/2000/svg" width="128" height="48" viewBox="0 0 128 48">
  <g transform="translate(0,0)">
    <circle cx="16" cy="10" r="6" fill="#f1c27d" stroke="#333333" stroke-width="1.5"/>
    <line x1="16" y1="16" x2="16" y2="32" stroke="#2c3e50" stroke-width="3"/>
    <line x1="16" y1="20" x2="24" y2="24" stroke="#2c3e50" stroke-width="3"/>
    <line x1="16" y1="20" x2="8" y2="28" stroke="#2c3e50" stroke-width="3"/>
    <line x1="16" y1="32" x2="24" y2="44" stroke="#2c3e50" stroke-width="3"/>
    <line x1="16" y1="32" x2="8" y2="40" stroke="#2c3e50" stroke-width="3"/>
  </g>
  <g transform="translate(32,0)">
    <circle cx="16" cy="10" r="6" fill="#f1c27d" stroke="#333333" stroke-width="1.5"/>
    <line x1="16" y1="16" x2="16" y2="32" stroke="#2c3e50" stroke-width="3"/>
    <line x1="16" y1="20" x2="22" y2="28" stroke="#2c3e50" stroke-width="3"/>
    <line x1="16" y1="20" x2="10" y2="24" stroke="#2c3e50" stroke-width="3"/>
    <line x1="16" y1="32" x2="18" y2="46" stroke="#2c3e50" stroke-width="3"/>
    <line x1="16" y1="32" x2="14" y2="46" stroke="#2c3e50" stroke-width="3"/>
  </g>
  <g transform="translate(64,0)">
    <circle cx="16" cy="10" r="6" fill="#f1c27d" stroke="#333333" stroke-width="1.5"/>
    <line x1="16" y1="16" x2="16" y2="32" stroke="#2c3e50" stroke-width="3"/>
    <line x1="16" y1="20" x2="8" y2="24" stroke="#2c3e50" stroke-width="3"/>
    <line x1="16" y1="20" x2="24" y2="28" stroke="#2c3e50" stroke-width="3"/>
    <line x1="16" y1="32" x2="8" y2="44" stroke="#2c3e50" stroke-width="3"/>
    <line x1="16" y1="32" x2="24" y2="40" stroke="#2c3e50" stroke-width="3"/>
  </g>
  <g transform="translate(96,0)">
    <circle cx="16" cy="10" r="6" fill="#f1c27d" stroke="#333333" stroke-width="1.5"/>
    <line x1="16" y1="16" x2="16" y2="32" stroke="#2c3e50" stroke-width="3"/>
    <line x1="16" y1="20" x2="10" y2="28" stroke="#2c3e50" stroke-width="3"/>
    <line x1="16" y1="20" x2="22" y2="24" stroke="#2c3e50" stroke-width="3"/>
    <line x1="16" y1="32" x2="14" y2="46" stroke="#2c3e50" stroke-width="3"/>
    <line x1="16" y1="32" x2="18" y2="46" stroke="#2c3e50" stroke-width="3"/>
  </g>
</svg>
